<svg width="155" height="38" viewBox="0 0 155 38" fill="none" xmlns="http://www.w3.org/2000/svg">
<path d="M16.2659 28V25.12H3.18593V-1.90735e-06H0.185932V28H16.2659ZM24.6703 5.24C25.8703 5.24 26.8303 4.32 26.8303 3.12C26.8303 1.92 25.8703 0.959998 24.6703 0.959998C23.5103 0.959998 22.5503 1.92 22.5503 3.12C22.5503 4.32 23.5103 5.24 24.6703 5.24ZM26.0703 28V10H23.2703V28H26.0703ZM49.9681 12.48C48.3281 10.64 46.0081 9.56 43.4481 9.56C38.2081 9.56 33.9281 13.52 33.9281 19.04C33.9281 24.52 38.2081 28.44 43.4481 28.44C46.0081 28.44 48.3281 27.36 49.9681 25.56V28.16C49.9681 32 47.5681 34.88 43.4881 34.88C41.0081 34.88 38.6481 33.56 37.5681 31.52L35.0481 33.08C36.6881 35.92 39.9681 37.68 43.4881 37.68C49.1281 37.68 52.7681 33.64 52.7681 28.16V10H49.9681V12.48ZM43.4481 25.64C39.7681 25.64 36.9281 22.88 36.9281 19.04C36.9281 15.16 39.7681 12.36 43.4481 12.36C47.0881 12.36 49.9681 15.16 49.9681 19.04C49.9681 22.88 47.0881 25.64 43.4481 25.64ZM64.3562 28V17.88C64.3562 14.48 66.5562 12.28 69.4762 12.28C72.3562 12.28 74.2762 14.24 74.2762 17.32V28H77.0762V16.72C77.0762 12.68 74.3162 9.56 69.9562 9.56C67.0762 9.56 65.1962 11 64.3562 12.24V-1.90735e-06H61.5562V28H64.3562ZM95.555 28.2V25.6H93.755C91.795 25.6 89.915 24.56 89.915 21.76V12.6H95.555V10H89.915V5.6H87.915V5.68C87.915 9.24 86.035 10.56 83.955 10.56H83.875V12.6H87.115V21.76C87.115 26.2 89.915 28.2 93.555 28.2H95.555ZM114.718 28.4C121.038 28.4 125.358 23.76 125.358 17.56V-1.90735e-06H122.358V17.56C122.358 22.08 119.438 25.44 114.718 25.44C110.038 25.44 107.158 22.08 107.158 17.56V-1.90735e-06H104.158V17.56C104.158 23.76 108.438 28.4 114.718 28.4ZM144.497 9.56C141.937 9.56 139.617 10.64 137.977 12.48V10H135.177V37.24H137.977V25.56C139.617 27.36 141.937 28.44 144.497 28.44C149.737 28.44 154.017 24.52 154.017 19.04C154.017 13.52 149.737 9.56 144.497 9.56ZM144.497 25.64C140.857 25.64 137.977 22.88 137.977 19.04C137.977 15.16 140.857 12.36 144.497 12.36C148.177 12.36 151.017 15.16 151.017 19.04C151.017 22.88 148.177 25.64 144.497 25.64Z" fill="white"/>
<path d="M16.2659 28V28.2H16.4659V28H16.2659ZM16.2659 25.12H16.4659V24.92H16.2659V25.12ZM3.18593 25.12H2.98593V25.32H3.18593V25.12ZM3.18593 -1.90735e-06H3.38593V-0.200003H3.18593V-1.90735e-06ZM0.185932 -1.90735e-06V-0.200003H-0.0140686V-1.90735e-06H0.185932ZM0.185932 28H-0.0140686V28.2H0.185932V28ZM16.4659 28V25.12H16.0659V28H16.4659ZM16.2659 24.92H3.18593V25.32H16.2659V24.92ZM3.38593 25.12V-1.90735e-06H2.98593V25.12H3.38593ZM3.18593 -0.200003H0.185932V0.199999H3.18593V-0.200003ZM-0.0140686 -1.90735e-06V28H0.385931V-1.90735e-06H-0.0140686ZM0.185932 28.2H16.2659V27.8H0.185932V28.2ZM26.0703 28V28.2H26.2703V28H26.0703ZM26.0703 10H26.2703V9.8H26.0703V10ZM23.2703 10V9.8H23.0703V10H23.2703ZM23.2703 28H23.0703V28.2H23.2703V28ZM24.6703 5.44C25.9758 5.44 27.0303 4.43532 27.0303 3.12H26.6303C26.6303 4.20468 25.7648 5.04 24.6703 5.04V5.44ZM27.0303 3.12C27.0303 1.80954 25.9808 0.759998 24.6703 0.759998V1.16C25.7598 1.16 26.6303 2.03046 26.6303 3.12H27.0303ZM24.6703 0.759998C23.3974 0.759998 22.3503 1.81198 22.3503 3.12H22.7503C22.7503 2.02802 23.6232 1.16 24.6703 1.16V0.759998ZM22.3503 3.12C22.3503 4.43291 23.4023 5.44 24.6703 5.44V5.04C23.6183 5.04 22.7503 4.20709 22.7503 3.12H22.3503ZM26.2703 28V10H25.8703V28H26.2703ZM26.0703 9.8H23.2703V10.2H26.0703V9.8ZM23.0703 10V28H23.4703V10H23.0703ZM23.2703 28.2H26.0703V27.8H23.2703V28.2ZM49.9681 12.48L49.8188 12.6131L50.1681 13.005V12.48H49.9681ZM49.9681 25.56H50.1681V25.0435L49.8203 25.4253L49.9681 25.56ZM37.5681 31.52L37.7449 31.4264L37.6448 31.2373L37.4628 31.3499L37.5681 31.52ZM35.0481 33.08L34.9428 32.9099L34.7779 33.012L34.8749 33.18L35.0481 33.08ZM52.7681 10H52.9681V9.8H52.7681V10ZM49.9681 10V9.8H49.7681V10H49.9681ZM50.1174 12.3469C48.4402 10.4651 46.0662 9.36 43.4481 9.36V9.76C45.9501 9.76 48.2161 10.8149 49.8188 12.6131L50.1174 12.3469ZM43.4481 9.36C38.1027 9.36 33.7281 13.4046 33.7281 19.04H34.1281C34.1281 13.6354 38.3136 9.76 43.4481 9.76V9.36ZM33.7281 19.04C33.7281 24.6371 38.1044 28.64 43.4481 28.64V28.24C38.3118 28.24 34.1281 24.4029 34.1281 19.04H33.7281ZM43.4481 28.64C46.0659 28.64 48.4391 27.5352 50.116 25.6947L49.8203 25.4253C48.2171 27.1848 45.9503 28.24 43.4481 28.24V28.64ZM49.7681 25.56V28.16H50.1681V25.56H49.7681ZM49.7681 28.16C49.7681 30.0388 49.1814 31.6674 48.1113 32.8242C47.0431 33.979 45.4784 34.68 43.4881 34.68V35.08C45.5778 35.08 47.2532 34.341 48.4049 33.0958C49.5549 31.8526 50.1681 30.1212 50.1681 28.16H49.7681ZM43.4881 34.68C41.0734 34.68 38.7863 33.3936 37.7449 31.4264L37.3914 31.6136C38.5099 33.7264 40.9428 35.08 43.4881 35.08V34.68ZM37.4628 31.3499L34.9428 32.9099L35.1534 33.2501L37.6734 31.6901L37.4628 31.3499ZM34.8749 33.18C36.5546 36.0888 39.905 37.88 43.4881 37.88V37.48C40.0313 37.48 36.8216 35.7512 35.2213 32.98L34.8749 33.18ZM43.4881 37.88C46.358 37.88 48.732 36.8509 50.3879 35.113C52.0428 33.3761 52.9681 30.9445 52.9681 28.16H52.5681C52.5681 30.8555 51.6734 33.1839 50.0983 34.837C48.5243 36.4891 46.2582 37.48 43.4881 37.48V37.88ZM52.9681 28.16V10H52.5681V28.16H52.9681ZM52.7681 9.8H49.9681V10.2H52.7681V9.8ZM49.7681 10V12.48H50.1681V10H49.7681ZM43.4481 25.44C39.8786 25.44 37.1281 22.7695 37.1281 19.04H36.7281C36.7281 22.9905 39.6577 25.84 43.4481 25.84V25.44ZM37.1281 19.04C37.1281 15.268 39.881 12.56 43.4481 12.56V12.16C39.6553 12.16 36.7281 15.052 36.7281 19.04H37.1281ZM43.4481 12.56C46.9761 12.56 49.7681 15.2689 49.7681 19.04H50.1681C50.1681 15.0511 47.2002 12.16 43.4481 12.16V12.56ZM49.7681 19.04C49.7681 22.7687 46.9785 25.44 43.4481 25.44V25.84C47.1978 25.84 50.1681 22.9913 50.1681 19.04H49.7681ZM64.3562 28V28.2H64.5562V28H64.3562ZM74.2762 28H74.0762V28.2H74.2762V28ZM77.0762 28V28.2H77.2762V28H77.0762ZM64.3562 12.24H64.1562V12.8918L64.5218 12.3522L64.3562 12.24ZM64.3562 -1.90735e-06H64.5562V-0.200003H64.3562V-1.90735e-06ZM61.5562 -1.90735e-06V-0.200003H61.3562V-1.90735e-06H61.5562ZM61.5562 28H61.3562V28.2H61.5562V28ZM64.5562 28V17.88H64.1562V28H64.5562ZM64.5562 17.88C64.5562 16.2237 65.0915 14.8749 65.9671 13.9419C66.8422 13.0094 68.0684 12.48 69.4762 12.48V12.08C67.9641 12.08 66.6303 12.6506 65.6754 13.6681C64.721 14.6851 64.1562 16.1363 64.1562 17.88H64.5562ZM69.4762 12.48C70.8694 12.48 72.0147 12.953 72.812 13.7835C73.61 14.6147 74.0762 15.8218 74.0762 17.32H74.4762C74.4762 15.7382 73.9825 14.4253 73.1005 13.5065C72.2178 12.587 70.9631 12.08 69.4762 12.08V12.48ZM74.0762 17.32V28H74.4762V17.32H74.0762ZM74.2762 28.2H77.0762V27.8H74.2762V28.2ZM77.2762 28V16.72H76.8762V28H77.2762ZM77.2762 16.72C77.2762 14.6542 76.5701 12.8127 75.2954 11.4864C74.0197 10.159 72.1861 9.36 69.9562 9.36V9.76C72.0863 9.76 73.8128 10.521 75.007 11.7636C76.2024 13.0073 76.8762 14.7458 76.8762 16.72H77.2762ZM69.9562 9.36C67.0052 9.36 65.0652 10.8369 64.1907 12.1278L64.5218 12.3522C65.3273 11.1631 67.1473 9.76 69.9562 9.76V9.36ZM64.5562 12.24V-1.90735e-06H64.1562V12.24H64.5562ZM64.3562 -0.200003H61.5562V0.199999H64.3562V-0.200003ZM61.3562 -1.90735e-06V28H61.7562V-1.90735e-06H61.3562ZM61.5562 28.2H64.3562V27.8H61.5562V28.2ZM95.555 28.2V28.4H95.755V28.2H95.555ZM95.555 25.6H95.755V25.4H95.555V25.6ZM89.915 12.6V12.4H89.715V12.6H89.915ZM95.555 12.6V12.8H95.755V12.6H95.555ZM95.555 10H95.755V9.8H95.555V10ZM89.915 10H89.715V10.2H89.915V10ZM89.915 5.6H90.115V5.4H89.915V5.6ZM87.915 5.6V5.4H87.715V5.6H87.915ZM83.875 10.56V10.36H83.675V10.56H83.875ZM83.875 12.6H83.675V12.8H83.875V12.6ZM87.115 12.6H87.315V12.4H87.115V12.6ZM95.755 28.2V25.6H95.355V28.2H95.755ZM95.555 25.4H93.755V25.8H95.555V25.4ZM93.755 25.4C92.8074 25.4 91.8985 25.1483 91.2298 24.5779C90.5666 24.012 90.115 23.1117 90.115 21.76H89.715C89.715 23.2083 90.2034 24.228 90.9702 24.8822C91.7315 25.5317 92.7426 25.8 93.755 25.8V25.4ZM90.115 21.76V12.6H89.715V21.76H90.115ZM89.915 12.8H95.555V12.4H89.915V12.8ZM95.755 12.6V10H95.355V12.6H95.755ZM95.555 9.8H89.915V10.2H95.555V9.8ZM90.115 10V5.6H89.715V10H90.115ZM89.915 5.4H87.915V5.8H89.915V5.4ZM87.715 5.6V5.68H88.115V5.6H87.715ZM87.715 5.68C87.715 7.42592 87.2544 8.59068 86.5694 9.31787C85.8852 10.0443 84.9527 10.36 83.955 10.36V10.76C85.0373 10.76 86.0848 10.4157 86.8606 9.59213C87.6356 8.76932 88.115 7.49408 88.115 5.68H87.715ZM83.955 10.36H83.875V10.76H83.955V10.36ZM83.675 10.56V12.6H84.075V10.56H83.675ZM83.875 12.8H87.115V12.4H83.875V12.8ZM86.915 12.6V21.76H87.315V12.6H86.915ZM86.915 21.76C86.915 24.0238 87.6303 25.6922 88.8351 26.7927C90.0368 27.8903 91.7002 28.4 93.555 28.4V28C91.7698 28 90.2132 27.5097 89.1049 26.4973C87.9997 25.4878 87.315 23.9362 87.315 21.76H86.915ZM93.555 28.4H95.555V28H93.555V28.4ZM125.358 -1.90735e-06H125.558V-0.200003H125.358V-1.90735e-06ZM122.358 -1.90735e-06V-0.200003H122.158V-1.90735e-06H122.358ZM107.158 -1.90735e-06H107.358V-0.200003H107.158V-1.90735e-06ZM104.158 -1.90735e-06V-0.200003H103.958V-1.90735e-06H104.158ZM114.718 28.6C121.155 28.6 125.558 23.864 125.558 17.56H125.158C125.158 23.656 120.921 28.2 114.718 28.2V28.6ZM125.558 17.56V-1.90735e-06H125.158V17.56H125.558ZM125.358 -0.200003H122.358V0.199999H125.358V-0.200003ZM122.158 -1.90735e-06V17.56H122.558V-1.90735e-06H122.158ZM122.158 17.56C122.158 19.777 121.442 21.6955 120.162 23.0581C118.883 24.4191 117.028 25.24 114.718 25.24V25.64C117.128 25.64 119.092 24.7809 120.454 23.3319C121.813 21.8845 122.558 19.863 122.558 17.56H122.158ZM114.718 25.24C112.428 25.24 110.593 24.4195 109.329 23.0589C108.064 21.6965 107.358 19.7778 107.358 17.56H106.958C106.958 19.8622 107.692 21.8835 109.036 23.3311C110.382 24.7805 112.327 25.64 114.718 25.64V25.24ZM107.358 17.56V-1.90735e-06H106.958V17.56H107.358ZM107.158 -0.200003H104.158V0.199999H107.158V-0.200003ZM103.958 -1.90735e-06V17.56H104.358V-1.90735e-06H103.958ZM103.958 17.56C103.958 23.8624 108.319 28.6 114.718 28.6V28.2C108.556 28.2 104.358 23.6576 104.358 17.56H103.958ZM137.977 12.48H137.777V13.005L138.126 12.6131L137.977 12.48ZM137.977 10H138.177V9.8H137.977V10ZM135.177 10V9.8H134.977V10H135.177ZM135.177 37.24H134.977V37.44H135.177V37.24ZM137.977 37.24V37.44H138.177V37.24H137.977ZM137.977 25.56L138.124 25.4253L137.777 25.0435V25.56H137.977ZM144.497 9.36C141.879 9.36 139.505 10.4651 137.827 12.3469L138.126 12.6131C139.729 10.8149 141.995 9.76 144.497 9.76V9.36ZM138.177 12.48V10H137.777V12.48H138.177ZM137.977 9.8H135.177V10.2H137.977V9.8ZM134.977 10V37.24H135.377V10H134.977ZM135.177 37.44H137.977V37.04H135.177V37.44ZM138.177 37.24V25.56H137.777V37.24H138.177ZM137.829 25.6947C139.506 27.5352 141.879 28.64 144.497 28.64V28.24C141.994 28.24 139.728 27.1848 138.124 25.4253L137.829 25.6947ZM144.497 28.64C149.84 28.64 154.217 24.6371 154.217 19.04H153.817C153.817 24.4029 149.633 28.24 144.497 28.24V28.64ZM154.217 19.04C154.217 13.4046 149.842 9.36 144.497 9.36V9.76C149.631 9.76 153.817 13.6354 153.817 19.04H154.217ZM144.497 25.44C140.966 25.44 138.177 22.7687 138.177 19.04H137.777C137.777 22.9913 140.747 25.84 144.497 25.84V25.44ZM138.177 19.04C138.177 15.2689 140.969 12.56 144.497 12.56V12.16C140.745 12.16 137.777 15.0511 137.777 19.04H138.177ZM144.497 12.56C148.064 12.56 150.817 15.268 150.817 19.04H151.217C151.217 15.052 148.289 12.16 144.497 12.16V12.56ZM150.817 19.04C150.817 22.7695 148.066 25.44 144.497 25.44V25.84C148.287 25.84 151.217 22.9905 151.217 19.04H150.817Z" fill="white"/>
</svg>
