<svg width="48" height="60" viewBox="0 0 48 60" fill="none" xmlns="http://www.w3.org/2000/svg">
<g filter="url(#filter0_di_19_105)">
<circle cx="24.4945" cy="19.4994" r="19.4994" fill="#040411"/>
</g>
<g filter="url(#filter1_b_19_105)">
<path d="M24.4945 9.23657C24.4945 18.8686 24.4945 22.1444 24.4945 22.5783H15.2579" stroke="#6B609D" stroke-width="4" stroke-linecap="round" stroke-linejoin="round"/>
</g>
<path d="M13.8838 59L12.8518 56.348H9.45575L8.43575 59H7.34375L10.6918 50.396H11.6638L14.9998 59H13.8838ZM11.5678 52.796C11.5438 52.732 11.5038 52.616 11.4478 52.448C11.3918 52.28 11.3358 52.108 11.2798 51.932C11.2318 51.748 11.1918 51.608 11.1598 51.512C11.1198 51.672 11.0758 51.836 11.0278 52.004C10.9878 52.164 10.9438 52.312 10.8958 52.448C10.8558 52.584 10.8198 52.7 10.7878 52.796L9.81575 55.388H12.5278L11.5678 52.796ZM17.0838 59H16.0278V49.88H17.0838V59ZM21.5576 52.46C22.3416 52.46 22.9216 52.632 23.2976 52.976C23.6736 53.32 23.8616 53.868 23.8616 54.62V59H23.0936L22.8896 58.088H22.8416C22.6576 58.32 22.4656 58.516 22.2656 58.676C22.0736 58.828 21.8496 58.94 21.5936 59.012C21.3456 59.084 21.0416 59.12 20.6816 59.12C20.2976 59.12 19.9496 59.052 19.6376 58.916C19.3336 58.78 19.0936 58.572 18.9176 58.292C18.7416 58.004 18.6536 57.644 18.6536 57.212C18.6536 56.572 18.9056 56.08 19.4096 55.736C19.9136 55.384 20.6896 55.192 21.7376 55.16L22.8296 55.124V54.74C22.8296 54.204 22.7136 53.832 22.4816 53.624C22.2496 53.416 21.9216 53.312 21.4976 53.312C21.1616 53.312 20.8416 53.364 20.5376 53.468C20.2336 53.564 19.9496 53.676 19.6856 53.804L19.3616 53.012C19.6416 52.86 19.9736 52.732 20.3576 52.628C20.7416 52.516 21.1416 52.46 21.5576 52.46ZM21.8696 55.892C21.0696 55.924 20.5136 56.052 20.2016 56.276C19.8976 56.5 19.7456 56.816 19.7456 57.224C19.7456 57.584 19.8536 57.848 20.0696 58.016C20.2936 58.184 20.5776 58.268 20.9216 58.268C21.4656 58.268 21.9176 58.12 22.2776 57.824C22.6376 57.52 22.8176 57.056 22.8176 56.432V55.856L21.8696 55.892ZM28.8481 52.448C28.9681 52.448 29.0961 52.456 29.2321 52.472C29.3761 52.48 29.5001 52.496 29.6041 52.52L29.4721 53.492C29.3681 53.468 29.2521 53.448 29.1241 53.432C29.0041 53.416 28.8881 53.408 28.7761 53.408C28.5281 53.408 28.2921 53.46 28.0681 53.564C27.8441 53.668 27.6441 53.816 27.4681 54.008C27.2921 54.192 27.1521 54.416 27.0481 54.68C26.9521 54.944 26.9041 55.24 26.9041 55.568V59H25.8481V52.568H26.7121L26.8321 53.744H26.8801C27.0161 53.504 27.1801 53.288 27.3721 53.096C27.5641 52.896 27.7841 52.74 28.0321 52.628C28.2801 52.508 28.5521 52.448 28.8481 52.448ZM37.8612 52.448C38.5892 52.448 39.1332 52.636 39.4932 53.012C39.8532 53.38 40.0332 53.98 40.0332 54.812V59H38.9892V54.86C38.9892 54.356 38.8812 53.976 38.6652 53.72C38.4572 53.464 38.1292 53.336 37.6812 53.336C37.0572 53.336 36.6092 53.516 36.3372 53.876C36.0732 54.236 35.9412 54.76 35.9412 55.448V59H34.8972V54.86C34.8972 54.524 34.8492 54.244 34.7532 54.02C34.6572 53.788 34.5132 53.616 34.3212 53.504C34.1292 53.392 33.8812 53.336 33.5772 53.336C33.1452 53.336 32.8052 53.428 32.5572 53.612C32.3092 53.788 32.1292 54.048 32.0172 54.392C31.9132 54.736 31.8612 55.16 31.8612 55.664V59H30.8052V52.568H31.6572L31.8132 53.444H31.8732C32.0092 53.22 32.1732 53.036 32.3652 52.892C32.5652 52.74 32.7852 52.628 33.0252 52.556C33.2652 52.484 33.5132 52.448 33.7692 52.448C34.2652 52.448 34.6772 52.536 35.0052 52.712C35.3412 52.888 35.5852 53.16 35.7372 53.528H35.7972C36.0132 53.16 36.3052 52.888 36.6732 52.712C37.0492 52.536 37.4452 52.448 37.8612 52.448Z" fill="black"/>
<defs>
<filter id="filter0_di_19_105" x="0.995117" y="0" width="46.9988" height="46.9988" filterUnits="userSpaceOnUse" color-interpolation-filters="sRGB">
<feFlood flood-opacity="0" result="BackgroundImageFix"/>
<feColorMatrix in="SourceAlpha" type="matrix" values="0 0 0 0 0 0 0 0 0 0 0 0 0 0 0 0 0 0 127 0" result="hardAlpha"/>
<feOffset dy="4"/>
<feGaussianBlur stdDeviation="2"/>
<feComposite in2="hardAlpha" operator="out"/>
<feColorMatrix type="matrix" values="0 0 0 0 0 0 0 0 0 0 0 0 0 0 0 0 0 0 0.25 0"/>
<feBlend mode="normal" in2="BackgroundImageFix" result="effect1_dropShadow_19_105"/>
<feBlend mode="normal" in="SourceGraphic" in2="effect1_dropShadow_19_105" result="shape"/>
<feColorMatrix in="SourceAlpha" type="matrix" values="0 0 0 0 0 0 0 0 0 0 0 0 0 0 0 0 0 0 127 0" result="hardAlpha"/>
<feOffset dy="1"/>
<feGaussianBlur stdDeviation="2"/>
<feComposite in2="hardAlpha" operator="arithmetic" k2="-1" k3="1"/>
<feColorMatrix type="matrix" values="0 0 0 0 1 0 0 0 0 1 0 0 0 0 1 0 0 0 0.25 0"/>
<feBlend mode="normal" in2="shape" result="effect2_innerShadow_19_105"/>
</filter>
<filter id="filter1_b_19_105" x="-6.74207" y="-12.7634" width="53.2366" height="57.3417" filterUnits="userSpaceOnUse" color-interpolation-filters="sRGB">
<feFlood flood-opacity="0" result="BackgroundImageFix"/>
<feGaussianBlur in="BackgroundImageFix" stdDeviation="10"/>
<feComposite in2="SourceAlpha" operator="in" result="effect1_backgroundBlur_19_105"/>
<feBlend mode="normal" in="SourceGraphic" in2="effect1_backgroundBlur_19_105" result="shape"/>
</filter>
</defs>
</svg>
