<svg width="60" height="63" viewBox="0 0 60 63" fill="none" xmlns="http://www.w3.org/2000/svg">
<path d="M7.00838 57.708C7.00838 58.22 6.88438 58.656 6.63638 59.016C6.38838 59.368 6.03238 59.64 5.56838 59.832C5.11238 60.024 4.57238 60.12 3.94838 60.12C3.62838 60.12 3.32038 60.104 3.02438 60.072C2.73638 60.04 2.47238 59.996 2.23238 59.94C1.99238 59.876 1.78038 59.8 1.59638 59.712V58.68C1.88438 58.808 2.24038 58.924 2.66438 59.028C3.09638 59.132 3.54038 59.184 3.99638 59.184C4.42038 59.184 4.77638 59.128 5.06438 59.016C5.35238 58.904 5.56838 58.744 5.71238 58.536C5.85638 58.328 5.92838 58.084 5.92838 57.804C5.92838 57.524 5.86838 57.288 5.74838 57.096C5.62838 56.904 5.42038 56.728 5.12438 56.568C4.83638 56.4 4.43238 56.224 3.91238 56.04C3.54438 55.904 3.22038 55.76 2.94038 55.608C2.66838 55.448 2.44038 55.268 2.25638 55.068C2.07238 54.868 1.93238 54.64 1.83638 54.384C1.74838 54.128 1.70438 53.832 1.70438 53.496C1.70438 53.04 1.82038 52.652 2.05238 52.332C2.28438 52.004 2.60438 51.752 3.01238 51.576C3.42838 51.4 3.90438 51.312 4.44038 51.312C4.91238 51.312 5.34438 51.356 5.73638 51.444C6.12838 51.532 6.48438 51.648 6.80438 51.792L6.46838 52.716C6.17238 52.588 5.84838 52.48 5.49638 52.392C5.15238 52.304 4.79238 52.26 4.41638 52.26C4.05638 52.26 3.75638 52.312 3.51638 52.416C3.27638 52.52 3.09638 52.668 2.97638 52.86C2.85638 53.044 2.79638 53.26 2.79638 53.508C2.79638 53.796 2.85638 54.036 2.97638 54.228C3.09638 54.42 3.29238 54.592 3.56438 54.744C3.83638 54.896 4.20438 55.06 4.66838 55.236C5.17238 55.42 5.59638 55.62 5.94038 55.836C6.29238 56.044 6.55638 56.296 6.73238 56.592C6.91638 56.888 7.00838 57.26 7.00838 57.708ZM10.7383 59.256C10.8983 59.256 11.0623 59.244 11.2303 59.22C11.3983 59.188 11.5343 59.156 11.6383 59.124V59.928C11.5263 59.984 11.3663 60.028 11.1583 60.06C10.9503 60.1 10.7503 60.12 10.5583 60.12C10.2223 60.12 9.91031 60.064 9.62231 59.952C9.34231 59.832 9.11431 59.628 8.93831 59.34C8.76231 59.052 8.67431 58.648 8.67431 58.128V54.384H7.76231V53.88L8.68631 53.46L9.10631 52.092H9.73031V53.568H11.5903V54.384H9.73031V58.104C9.73031 58.496 9.82231 58.788 10.0063 58.98C10.1983 59.164 10.4423 59.256 10.7383 59.256ZM18.5182 56.772C18.5182 57.308 18.4463 57.784 18.3023 58.2C18.1663 58.608 17.9663 58.956 17.7023 59.244C17.4463 59.532 17.1303 59.752 16.7543 59.904C16.3863 60.048 15.9743 60.12 15.5183 60.12C15.0943 60.12 14.7023 60.048 14.3423 59.904C13.9823 59.752 13.6703 59.532 13.4062 59.244C13.1423 58.956 12.9343 58.608 12.7823 58.2C12.6383 57.784 12.5663 57.308 12.5663 56.772C12.5663 56.06 12.6863 55.46 12.9263 54.972C13.1663 54.476 13.5103 54.1 13.9583 53.844C14.4063 53.58 14.9383 53.448 15.5543 53.448C16.1383 53.448 16.6503 53.58 17.0903 53.844C17.5383 54.1 17.8863 54.476 18.1343 54.972C18.3903 55.46 18.5182 56.06 18.5182 56.772ZM13.6583 56.772C13.6583 57.276 13.7223 57.716 13.8503 58.092C13.9863 58.46 14.1943 58.744 14.4743 58.944C14.7543 59.144 15.1103 59.244 15.5423 59.244C15.9743 59.244 16.3303 59.144 16.6103 58.944C16.8903 58.744 17.0943 58.46 17.2223 58.092C17.3583 57.716 17.4263 57.276 17.4263 56.772C17.4263 56.26 17.3583 55.824 17.2223 55.464C17.0863 55.104 16.8783 54.828 16.5983 54.636C16.3263 54.436 15.9703 54.336 15.5303 54.336C14.8743 54.336 14.3983 54.552 14.1023 54.984C13.8063 55.416 13.6583 56.012 13.6583 56.772ZM23.2519 53.448C24.0439 53.448 24.6799 53.724 25.1599 54.276C25.6479 54.828 25.8919 55.66 25.8919 56.772C25.8919 57.5 25.7799 58.116 25.5559 58.62C25.3399 59.116 25.0319 59.492 24.6319 59.748C24.2399 59.996 23.7759 60.12 23.2399 60.12C22.9119 60.12 22.6199 60.076 22.3639 59.988C22.1079 59.9 21.8879 59.788 21.7039 59.652C21.5279 59.508 21.3759 59.352 21.2479 59.184H21.1759C21.1919 59.32 21.2079 59.492 21.2239 59.7C21.2399 59.908 21.2479 60.088 21.2479 60.24V62.88H20.1919V53.568H21.0559L21.1999 54.444H21.2479C21.3759 54.26 21.5279 54.092 21.7039 53.94C21.8879 53.788 22.1039 53.668 22.3519 53.58C22.6079 53.492 22.9079 53.448 23.2519 53.448ZM23.0599 54.336C22.6279 54.336 22.2799 54.42 22.0159 54.588C21.7519 54.748 21.5599 54.992 21.4399 55.32C21.3199 55.648 21.2559 56.064 21.2479 56.568V56.772C21.2479 57.3 21.3039 57.748 21.4159 58.116C21.5279 58.484 21.7159 58.764 21.9799 58.956C22.2519 59.148 22.6199 59.244 23.0839 59.244C23.4759 59.244 23.7959 59.136 24.0439 58.92C24.2999 58.704 24.4879 58.412 24.6079 58.044C24.7359 57.668 24.7999 57.24 24.7999 56.76C24.7999 56.024 24.6559 55.436 24.3679 54.996C24.0879 54.556 23.6519 54.336 23.0599 54.336ZM31.4923 56.364C31.4443 56.196 31.3963 56.032 31.3483 55.872C31.3003 55.704 31.2563 55.548 31.2163 55.404C31.1843 55.252 31.1523 55.112 31.1203 54.984C31.0883 54.856 31.0643 54.748 31.0483 54.66H31.0003C30.9843 54.748 30.9603 54.856 30.9283 54.984C30.9043 55.112 30.8723 55.252 30.8323 55.404C30.8003 55.556 30.7603 55.716 30.7123 55.884C30.6723 56.044 30.6243 56.208 30.5683 56.376L29.4163 59.988H28.2163L26.4523 53.556H27.5443L28.4323 56.988C28.4963 57.22 28.5563 57.456 28.6123 57.696C28.6683 57.928 28.7163 58.152 28.7563 58.368C28.8043 58.576 28.8363 58.756 28.8523 58.908H28.9003C28.9243 58.812 28.9523 58.692 28.9843 58.548C29.0163 58.404 29.0483 58.252 29.0803 58.092C29.1203 57.932 29.1603 57.772 29.2003 57.612C29.2483 57.452 29.2923 57.308 29.3323 57.18L30.4723 53.556H31.6243L32.7283 57.18C32.7843 57.364 32.8403 57.56 32.8963 57.768C32.9603 57.976 33.0163 58.18 33.0643 58.38C33.1123 58.572 33.1443 58.744 33.1603 58.896H33.2083C33.2243 58.76 33.2523 58.592 33.2923 58.392C33.3403 58.184 33.3923 57.96 33.4483 57.72C33.5123 57.472 33.5763 57.228 33.6403 56.988L34.5403 53.556H35.6203L33.8323 59.988H32.5963L31.4923 56.364ZM39.2099 53.46C39.9939 53.46 40.5739 53.632 40.9499 53.976C41.3259 54.32 41.5139 54.868 41.5139 55.62V60H40.7459L40.5419 59.088H40.4939C40.3099 59.32 40.1179 59.516 39.9179 59.676C39.7259 59.828 39.5019 59.94 39.2459 60.012C38.9979 60.084 38.6939 60.12 38.3339 60.12C37.9499 60.12 37.6019 60.052 37.2899 59.916C36.9859 59.78 36.7459 59.572 36.5699 59.292C36.3939 59.004 36.3059 58.644 36.3059 58.212C36.3059 57.572 36.5579 57.08 37.0619 56.736C37.5659 56.384 38.3419 56.192 39.3899 56.16L40.4819 56.124V55.74C40.4819 55.204 40.3659 54.832 40.1339 54.624C39.9019 54.416 39.5739 54.312 39.1499 54.312C38.8139 54.312 38.4939 54.364 38.1899 54.468C37.8859 54.564 37.6019 54.676 37.3379 54.804L37.0139 54.012C37.2939 53.86 37.6259 53.732 38.0099 53.628C38.3939 53.516 38.7939 53.46 39.2099 53.46ZM39.5219 56.892C38.7219 56.924 38.1659 57.052 37.8539 57.276C37.5499 57.5 37.3979 57.816 37.3979 58.224C37.3979 58.584 37.5059 58.848 37.7219 59.016C37.9459 59.184 38.2299 59.268 38.5739 59.268C39.1179 59.268 39.5699 59.12 39.9299 58.824C40.2899 58.52 40.4699 58.056 40.4699 57.432V56.856L39.5219 56.892ZM45.6485 59.256C45.8085 59.256 45.9725 59.244 46.1405 59.22C46.3085 59.188 46.4445 59.156 46.5485 59.124V59.928C46.4365 59.984 46.2765 60.028 46.0685 60.06C45.8605 60.1 45.6605 60.12 45.4685 60.12C45.1325 60.12 44.8205 60.064 44.5325 59.952C44.2525 59.832 44.0245 59.628 43.8485 59.34C43.6725 59.052 43.5845 58.648 43.5845 58.128V54.384H42.6725V53.88L43.5965 53.46L44.0165 52.092H44.6405V53.568H46.5005V54.384H44.6405V58.104C44.6405 58.496 44.7325 58.788 44.9165 58.98C45.1085 59.164 45.3525 59.256 45.6485 59.256ZM50.4164 60.12C49.8484 60.12 49.3404 60.004 48.8924 59.772C48.4524 59.54 48.1044 59.18 47.8484 58.692C47.6004 58.204 47.4764 57.58 47.4764 56.82C47.4764 56.028 47.6084 55.384 47.8724 54.888C48.1364 54.392 48.4924 54.028 48.9404 53.796C49.3964 53.564 49.9124 53.448 50.4884 53.448C50.8164 53.448 51.1324 53.484 51.4364 53.556C51.7404 53.62 51.9884 53.7 52.1804 53.796L51.8564 54.672C51.6644 54.6 51.4404 54.532 51.1844 54.468C50.9284 54.404 50.6884 54.372 50.4644 54.372C50.0324 54.372 49.6764 54.464 49.3964 54.648C49.1164 54.832 48.9084 55.104 48.7724 55.464C48.6364 55.824 48.5684 56.272 48.5684 56.808C48.5684 57.32 48.6364 57.756 48.7724 58.116C48.9084 58.476 49.1124 58.748 49.3844 58.932C49.6564 59.116 49.9964 59.208 50.4044 59.208C50.7564 59.208 51.0644 59.172 51.3284 59.1C51.6004 59.028 51.8484 58.94 52.0724 58.836V59.772C51.8564 59.884 51.6164 59.968 51.3524 60.024C51.0964 60.088 50.7844 60.12 50.4164 60.12ZM54.658 53.556C54.658 53.708 54.65 53.864 54.634 54.024C54.626 54.184 54.614 54.328 54.598 54.456H54.67C54.806 54.232 54.978 54.048 55.186 53.904C55.394 53.76 55.626 53.652 55.882 53.58C56.138 53.5 56.402 53.46 56.674 53.46C57.194 53.46 57.626 53.544 57.97 53.712C58.322 53.872 58.586 54.124 58.762 54.468C58.938 54.812 59.026 55.26 59.026 55.812V60H57.982V55.884C57.982 55.364 57.866 54.976 57.634 54.72C57.402 54.464 57.038 54.336 56.542 54.336C56.062 54.336 55.686 54.428 55.414 54.612C55.142 54.788 54.946 55.052 54.826 55.404C54.714 55.748 54.658 56.172 54.658 56.676V60H53.602V50.88H54.658V53.556Z" fill="black"/>
<g filter="url(#filter0_di_19_102)">
<circle cx="30.4982" cy="19.4994" r="19.4994" fill="#040412"/>
</g>
<g filter="url(#filter1_b_19_102)">
<path d="M30.6159 6.174C27.8407 6.18016 25.1296 7.00914 22.8254 8.55611C20.5213 10.1031 18.7277 12.2986 17.6713 14.8649C16.6149 17.4313 16.3433 20.2533 16.8908 22.974C17.4383 25.6948 18.7802 28.1921 20.747 30.1501C22.7138 32.1082 25.217 33.439 27.9401 33.9744C30.6633 34.5098 33.484 34.2257 36.0457 33.1579C38.6073 32.0902 40.7948 30.2868 42.3315 27.9758C43.8683 25.6649 44.6852 22.9501 44.6791 20.1748L30.6471 20.206L30.6159 6.174Z" fill="#C5BADD"/>
</g>
<defs>
<filter id="filter0_di_19_102" x="6.99878" y="0" width="46.9988" height="46.9988" filterUnits="userSpaceOnUse" color-interpolation-filters="sRGB">
<feFlood flood-opacity="0" result="BackgroundImageFix"/>
<feColorMatrix in="SourceAlpha" type="matrix" values="0 0 0 0 0 0 0 0 0 0 0 0 0 0 0 0 0 0 127 0" result="hardAlpha"/>
<feOffset dy="4"/>
<feGaussianBlur stdDeviation="2"/>
<feComposite in2="hardAlpha" operator="out"/>
<feColorMatrix type="matrix" values="0 0 0 0 0 0 0 0 0 0 0 0 0 0 0 0 0 0 0.25 0"/>
<feBlend mode="normal" in2="BackgroundImageFix" result="effect1_dropShadow_19_102"/>
<feBlend mode="normal" in="SourceGraphic" in2="effect1_dropShadow_19_102" result="shape"/>
<feColorMatrix in="SourceAlpha" type="matrix" values="0 0 0 0 0 0 0 0 0 0 0 0 0 0 0 0 0 0 127 0" result="hardAlpha"/>
<feOffset dy="1"/>
<feGaussianBlur stdDeviation="2"/>
<feComposite in2="hardAlpha" operator="arithmetic" k2="-1" k3="1"/>
<feColorMatrix type="matrix" values="0 0 0 0 1 0 0 0 0 1 0 0 0 0 1 0 0 0 0.25 0"/>
<feBlend mode="normal" in2="shape" result="effect2_innerShadow_19_102"/>
</filter>
<filter id="filter1_b_19_102" x="-3.38489" y="-13.826" width="68.064" height="68.064" filterUnits="userSpaceOnUse" color-interpolation-filters="sRGB">
<feFlood flood-opacity="0" result="BackgroundImageFix"/>
<feGaussianBlur in="BackgroundImageFix" stdDeviation="10"/>
<feComposite in2="SourceAlpha" operator="in" result="effect1_backgroundBlur_19_102"/>
<feBlend mode="normal" in="SourceGraphic" in2="effect1_backgroundBlur_19_102" result="shape"/>
</filter>
</defs>
</svg>
