<svg width="47" height="61" viewBox="0 0 47 61" fill="none" xmlns="http://www.w3.org/2000/svg">
<path d="M8.03572 57.708C8.03572 58.22 7.91172 58.656 7.66372 59.016C7.41572 59.368 7.05972 59.64 6.59572 59.832C6.13972 60.024 5.59972 60.12 4.97572 60.12C4.65572 60.12 4.34772 60.104 4.05172 60.072C3.76372 60.04 3.49972 59.996 3.25972 59.94C3.01972 59.876 2.80772 59.8 2.62372 59.712V58.68C2.91172 58.808 3.26772 58.924 3.69172 59.028C4.12372 59.132 4.56772 59.184 5.02372 59.184C5.44772 59.184 5.80372 59.128 6.09172 59.016C6.37972 58.904 6.59572 58.744 6.73972 58.536C6.88372 58.328 6.95572 58.084 6.95572 57.804C6.95572 57.524 6.89572 57.288 6.77572 57.096C6.65572 56.904 6.44772 56.728 6.15172 56.568C5.86372 56.4 5.45972 56.224 4.93972 56.04C4.57172 55.904 4.24772 55.76 3.96772 55.608C3.69572 55.448 3.46772 55.268 3.28372 55.068C3.09972 54.868 2.95972 54.64 2.86372 54.384C2.77572 54.128 2.73172 53.832 2.73172 53.496C2.73172 53.04 2.84772 52.652 3.07972 52.332C3.31172 52.004 3.63172 51.752 4.03972 51.576C4.45572 51.4 4.93172 51.312 5.46772 51.312C5.93972 51.312 6.37172 51.356 6.76372 51.444C7.15572 51.532 7.51172 51.648 7.83172 51.792L7.49572 52.716C7.19972 52.588 6.87572 52.48 6.52372 52.392C6.17972 52.304 5.81972 52.26 5.44372 52.26C5.08372 52.26 4.78372 52.312 4.54372 52.416C4.30372 52.52 4.12372 52.668 4.00372 52.86C3.88372 53.044 3.82372 53.26 3.82372 53.508C3.82372 53.796 3.88372 54.036 4.00372 54.228C4.12372 54.42 4.31972 54.592 4.59172 54.744C4.86372 54.896 5.23172 55.06 5.69572 55.236C6.19972 55.42 6.62372 55.62 6.96772 55.836C7.31972 56.044 7.58372 56.296 7.75972 56.592C7.94372 56.888 8.03572 57.26 8.03572 57.708ZM14.9937 53.568V60H14.1297L13.9737 59.148H13.9257C13.7897 59.372 13.6137 59.556 13.3977 59.7C13.1817 59.844 12.9457 59.948 12.6897 60.012C12.4337 60.084 12.1657 60.12 11.8857 60.12C11.3737 60.12 10.9417 60.04 10.5897 59.88C10.2457 59.712 9.98566 59.456 9.80966 59.112C9.63366 58.768 9.54566 58.324 9.54566 57.78V53.568H10.6137V57.708C10.6137 58.22 10.7297 58.604 10.9617 58.86C11.1937 59.116 11.5537 59.244 12.0417 59.244C12.5217 59.244 12.8977 59.156 13.1697 58.98C13.4497 58.796 13.6457 58.532 13.7577 58.188C13.8777 57.836 13.9377 57.412 13.9377 56.916V53.568H14.9937ZM20.1316 53.448C20.8996 53.448 21.4796 53.636 21.8716 54.012C22.2636 54.38 22.4596 54.98 22.4596 55.812V60H21.4156V55.884C21.4156 55.364 21.2996 54.976 21.0676 54.72C20.8356 54.464 20.4716 54.336 19.9756 54.336C19.2636 54.336 18.7716 54.536 18.4996 54.936C18.2276 55.336 18.0916 55.912 18.0916 56.664V60H17.0356V53.568H17.8876L18.0436 54.444H18.1036C18.2476 54.22 18.4236 54.036 18.6316 53.892C18.8476 53.74 19.0836 53.628 19.3396 53.556C19.5956 53.484 19.8596 53.448 20.1316 53.448ZM27.4536 53.448C27.5736 53.448 27.7016 53.456 27.8376 53.472C27.9816 53.48 28.1056 53.496 28.2096 53.52L28.0776 54.492C27.9736 54.468 27.8576 54.448 27.7296 54.432C27.6096 54.416 27.4936 54.408 27.3816 54.408C27.1336 54.408 26.8976 54.46 26.6736 54.564C26.4496 54.668 26.2496 54.816 26.0736 55.008C25.8976 55.192 25.7576 55.416 25.6536 55.68C25.5576 55.944 25.5096 56.24 25.5096 56.568V60H24.4536V53.568H25.3176L25.4376 54.744H25.4856C25.6216 54.504 25.7856 54.288 25.9776 54.096C26.1696 53.896 26.3896 53.74 26.6376 53.628C26.8856 53.508 27.1576 53.448 27.4536 53.448ZM30.4666 53.568V60H29.4106V53.568H30.4666ZM29.9506 51.156C30.1106 51.156 30.2506 51.212 30.3706 51.324C30.4986 51.428 30.5626 51.596 30.5626 51.828C30.5626 52.052 30.4986 52.22 30.3706 52.332C30.2506 52.444 30.1106 52.5 29.9506 52.5C29.7746 52.5 29.6266 52.444 29.5066 52.332C29.3866 52.22 29.3266 52.052 29.3266 51.828C29.3266 51.596 29.3866 51.428 29.5066 51.324C29.6266 51.212 29.7746 51.156 29.9506 51.156ZM36.6924 58.224C36.6924 58.64 36.5884 58.988 36.3804 59.268C36.1724 59.548 35.8764 59.76 35.4924 59.904C35.1084 60.048 34.6524 60.12 34.1244 60.12C33.6764 60.12 33.2884 60.084 32.9604 60.012C32.6404 59.94 32.3564 59.84 32.1084 59.712V58.752C32.3644 58.88 32.6724 59 33.0324 59.112C33.4004 59.216 33.7724 59.268 34.1484 59.268C34.6844 59.268 35.0724 59.184 35.3124 59.016C35.5524 58.84 35.6724 58.608 35.6724 58.32C35.6724 58.16 35.6284 58.016 35.5404 57.888C35.4524 57.76 35.2924 57.632 35.0604 57.504C34.8364 57.376 34.5124 57.232 34.0884 57.072C33.6724 56.912 33.3164 56.752 33.0204 56.592C32.7244 56.432 32.4964 56.24 32.3364 56.016C32.1764 55.792 32.0964 55.504 32.0964 55.152C32.0964 54.608 32.3164 54.188 32.7564 53.892C33.2044 53.596 33.7884 53.448 34.5084 53.448C34.9004 53.448 35.2644 53.488 35.6004 53.568C35.9444 53.64 36.2644 53.744 36.5604 53.88L36.2004 54.72C36.0244 54.64 35.8364 54.572 35.6364 54.516C35.4444 54.452 35.2484 54.404 35.0484 54.372C34.8484 54.332 34.6444 54.312 34.4364 54.312C34.0044 54.312 33.6724 54.384 33.4404 54.528C33.2164 54.664 33.1044 54.852 33.1044 55.092C33.1044 55.268 33.1564 55.42 33.2604 55.548C33.3644 55.668 33.5364 55.788 33.7764 55.908C34.0244 56.02 34.3524 56.156 34.7604 56.316C35.1684 56.468 35.5164 56.624 35.8044 56.784C36.0924 56.944 36.3124 57.14 36.4644 57.372C36.6164 57.596 36.6924 57.88 36.6924 58.224ZM40.7306 53.448C41.2826 53.448 41.7546 53.568 42.1466 53.808C42.5466 54.048 42.8506 54.388 43.0586 54.828C43.2746 55.26 43.3826 55.768 43.3826 56.352V56.988H38.9786C38.9946 57.716 39.1786 58.272 39.5306 58.656C39.8906 59.032 40.3906 59.22 41.0306 59.22C41.4386 59.22 41.7986 59.184 42.1106 59.112C42.4306 59.032 42.7586 58.92 43.0946 58.776V59.7C42.7666 59.844 42.4426 59.948 42.1226 60.012C41.8026 60.084 41.4226 60.12 40.9826 60.12C40.3746 60.12 39.8346 59.996 39.3626 59.748C38.8986 59.5 38.5346 59.132 38.2706 58.644C38.0146 58.148 37.8866 57.544 37.8866 56.832C37.8866 56.128 38.0026 55.524 38.2346 55.02C38.4746 54.516 38.8066 54.128 39.2306 53.856C39.6626 53.584 40.1626 53.448 40.7306 53.448ZM40.7186 54.312C40.2146 54.312 39.8146 54.476 39.5186 54.804C39.2306 55.124 39.0586 55.572 39.0026 56.148H42.2786C42.2786 55.78 42.2226 55.46 42.1106 55.188C41.9986 54.916 41.8266 54.704 41.5946 54.552C41.3706 54.392 41.0786 54.312 40.7186 54.312Z" fill="black"/>
<g filter="url(#filter0_di_19_101)">
<circle cx="23.4994" cy="19.4994" r="19.4994" fill="#040412"/>
</g>
<path d="M9.68921 33.0669C13.1027 23.8946 30.1703 21.0496 36.9973 32.9972C34.1527 37.4788 20.4987 43.8067 9.68921 33.0669Z" fill="#C5BADD"/>
<defs>
<filter id="filter0_di_19_101" x="0" y="0" width="46.9988" height="46.9988" filterUnits="userSpaceOnUse" color-interpolation-filters="sRGB">
<feFlood flood-opacity="0" result="BackgroundImageFix"/>
<feColorMatrix in="SourceAlpha" type="matrix" values="0 0 0 0 0 0 0 0 0 0 0 0 0 0 0 0 0 0 127 0" result="hardAlpha"/>
<feOffset dy="4"/>
<feGaussianBlur stdDeviation="2"/>
<feComposite in2="hardAlpha" operator="out"/>
<feColorMatrix type="matrix" values="0 0 0 0 0 0 0 0 0 0 0 0 0 0 0 0 0 0 0.25 0"/>
<feBlend mode="normal" in2="BackgroundImageFix" result="effect1_dropShadow_19_101"/>
<feBlend mode="normal" in="SourceGraphic" in2="effect1_dropShadow_19_101" result="shape"/>
<feColorMatrix in="SourceAlpha" type="matrix" values="0 0 0 0 0 0 0 0 0 0 0 0 0 0 0 0 0 0 127 0" result="hardAlpha"/>
<feOffset dy="1"/>
<feGaussianBlur stdDeviation="2"/>
<feComposite in2="hardAlpha" operator="arithmetic" k2="-1" k3="1"/>
<feColorMatrix type="matrix" values="0 0 0 0 1 0 0 0 0 1 0 0 0 0 1 0 0 0 0.25 0"/>
<feBlend mode="normal" in2="shape" result="effect2_innerShadow_19_101"/>
</filter>
</defs>
</svg>
