<svg width="48" height="62" viewBox="0 0 48 62" fill="none" xmlns="http://www.w3.org/2000/svg">
<path d="M13.169 61H12.089V53.38H9.41297V52.432H15.833V53.38H13.169V61ZM18.0369 54.568V61H16.9809V54.568H18.0369ZM17.5209 52.156C17.6809 52.156 17.8209 52.212 17.9409 52.324C18.0689 52.428 18.1329 52.596 18.1329 52.828C18.1329 53.052 18.0689 53.22 17.9409 53.332C17.8209 53.444 17.6809 53.5 17.5209 53.5C17.3449 53.5 17.1969 53.444 17.0769 53.332C16.9569 53.22 16.8969 53.052 16.8969 52.828C16.8969 52.596 16.9569 52.428 17.0769 52.324C17.1969 52.212 17.3449 52.156 17.5209 52.156ZM27.1307 54.448C27.8587 54.448 28.4027 54.636 28.7627 55.012C29.1227 55.38 29.3027 55.98 29.3027 56.812V61H28.2587V56.86C28.2587 56.356 28.1507 55.976 27.9347 55.72C27.7267 55.464 27.3987 55.336 26.9507 55.336C26.3267 55.336 25.8787 55.516 25.6067 55.876C25.3427 56.236 25.2107 56.76 25.2107 57.448V61H24.1667V56.86C24.1667 56.524 24.1187 56.244 24.0227 56.02C23.9267 55.788 23.7827 55.616 23.5907 55.504C23.3987 55.392 23.1507 55.336 22.8467 55.336C22.4147 55.336 22.0747 55.428 21.8267 55.612C21.5787 55.788 21.3987 56.048 21.2867 56.392C21.1827 56.736 21.1307 57.16 21.1307 57.664V61H20.0747V54.568H20.9267L21.0827 55.444H21.1427C21.2787 55.22 21.4427 55.036 21.6347 54.892C21.8347 54.74 22.0547 54.628 22.2947 54.556C22.5347 54.484 22.7827 54.448 23.0387 54.448C23.5347 54.448 23.9467 54.536 24.2747 54.712C24.6107 54.888 24.8547 55.16 25.0067 55.528H25.0667C25.2827 55.16 25.5747 54.888 25.9427 54.712C26.3187 54.536 26.7147 54.448 27.1307 54.448ZM33.7735 54.448C34.3255 54.448 34.7975 54.568 35.1895 54.808C35.5895 55.048 35.8935 55.388 36.1015 55.828C36.3175 56.26 36.4255 56.768 36.4255 57.352V57.988H32.0215C32.0375 58.716 32.2215 59.272 32.5735 59.656C32.9335 60.032 33.4335 60.22 34.0735 60.22C34.4815 60.22 34.8415 60.184 35.1535 60.112C35.4735 60.032 35.8015 59.92 36.1375 59.776V60.7C35.8095 60.844 35.4855 60.948 35.1655 61.012C34.8455 61.084 34.4655 61.12 34.0255 61.12C33.4175 61.12 32.8775 60.996 32.4055 60.748C31.9415 60.5 31.5775 60.132 31.3135 59.644C31.0575 59.148 30.9295 58.544 30.9295 57.832C30.9295 57.128 31.0455 56.524 31.2775 56.02C31.5175 55.516 31.8495 55.128 32.2735 54.856C32.7055 54.584 33.2055 54.448 33.7735 54.448ZM33.7615 55.312C33.2575 55.312 32.8575 55.476 32.5615 55.804C32.2735 56.124 32.1015 56.572 32.0455 57.148H35.3215C35.3215 56.78 35.2655 56.46 35.1535 56.188C35.0415 55.916 34.8695 55.704 34.6375 55.552C34.4135 55.392 34.1215 55.312 33.7615 55.312ZM41.063 54.448C41.183 54.448 41.311 54.456 41.447 54.472C41.591 54.48 41.715 54.496 41.819 54.52L41.687 55.492C41.583 55.468 41.467 55.448 41.339 55.432C41.219 55.416 41.103 55.408 40.991 55.408C40.743 55.408 40.507 55.46 40.283 55.564C40.059 55.668 39.859 55.816 39.683 56.008C39.507 56.192 39.367 56.416 39.263 56.68C39.167 56.944 39.119 57.24 39.119 57.568V61H38.063V54.568H38.927L39.047 55.744H39.095C39.231 55.504 39.395 55.288 39.587 55.096C39.779 54.896 39.999 54.74 40.247 54.628C40.495 54.508 40.767 54.448 41.063 54.448Z" fill="black"/>
<g filter="url(#filter0_di_19_103)">
<circle cx="24.497" cy="19.4994" r="19.4994" fill="#040412"/>
</g>
<circle cx="24.4969" cy="19.4994" r="14.9206" stroke="#C5BADD" stroke-width="3" stroke-linejoin="round" stroke-dasharray="5 5"/>
<path d="M18.4891 16.5378C20.3246 18.8336 25.7358 24.6589 27.5098 22.2492C29.7069 19.2647 24.808 17.5454 18.4891 16.5378Z" fill="#C5BADD"/>
<defs>
<filter id="filter0_di_19_103" x="0.997559" y="0" width="46.9988" height="46.9988" filterUnits="userSpaceOnUse" color-interpolation-filters="sRGB">
<feFlood flood-opacity="0" result="BackgroundImageFix"/>
<feColorMatrix in="SourceAlpha" type="matrix" values="0 0 0 0 0 0 0 0 0 0 0 0 0 0 0 0 0 0 127 0" result="hardAlpha"/>
<feOffset dy="4"/>
<feGaussianBlur stdDeviation="2"/>
<feComposite in2="hardAlpha" operator="out"/>
<feColorMatrix type="matrix" values="0 0 0 0 0 0 0 0 0 0 0 0 0 0 0 0 0 0 0.25 0"/>
<feBlend mode="normal" in2="BackgroundImageFix" result="effect1_dropShadow_19_103"/>
<feBlend mode="normal" in="SourceGraphic" in2="effect1_dropShadow_19_103" result="shape"/>
<feColorMatrix in="SourceAlpha" type="matrix" values="0 0 0 0 0 0 0 0 0 0 0 0 0 0 0 0 0 0 127 0" result="hardAlpha"/>
<feOffset dy="1"/>
<feGaussianBlur stdDeviation="2"/>
<feComposite in2="hardAlpha" operator="arithmetic" k2="-1" k3="1"/>
<feColorMatrix type="matrix" values="0 0 0 0 1 0 0 0 0 1 0 0 0 0 1 0 0 0 0.45 0"/>
<feBlend mode="normal" in2="shape" result="effect2_innerShadow_19_103"/>
</filter>
</defs>
</svg>
