<svg width="68" height="62" viewBox="0 0 68 62" fill="none" xmlns="http://www.w3.org/2000/svg">
<path d="M12.711 52.432L10.431 61H9.33903L7.67103 55.384C7.62303 55.216 7.57503 55.044 7.52703 54.868C7.47903 54.692 7.43503 54.524 7.39503 54.364C7.35503 54.204 7.31903 54.068 7.28703 53.956C7.26303 53.836 7.24703 53.748 7.23903 53.692C7.23103 53.748 7.21503 53.836 7.19103 53.956C7.17503 54.068 7.14703 54.204 7.10703 54.364C7.06703 54.524 7.02303 54.696 6.97503 54.88C6.93503 55.056 6.88703 55.236 6.83103 55.42L5.21103 61H4.11903L1.85103 52.432H2.97903L4.31103 57.664C4.35903 57.848 4.40303 58.032 4.44303 58.216C4.48303 58.392 4.51903 58.568 4.55103 58.744C4.59103 58.912 4.62303 59.076 4.64703 59.236C4.67103 59.396 4.69503 59.552 4.71903 59.704C4.74303 59.544 4.76703 59.38 4.79103 59.212C4.82303 59.044 4.85903 58.872 4.89903 58.696C4.93903 58.512 4.98303 58.328 5.03103 58.144C5.07903 57.96 5.12703 57.78 5.17503 57.604L6.68703 52.432H7.80303L9.37503 57.64C9.43103 57.824 9.48303 58.012 9.53103 58.204C9.57903 58.388 9.62303 58.568 9.66303 58.744C9.70303 58.92 9.73503 59.092 9.75903 59.26C9.79103 59.42 9.81903 59.568 9.84303 59.704C9.86703 59.504 9.89903 59.296 9.93903 59.08C9.97903 58.856 10.027 58.624 10.083 58.384C10.139 58.144 10.199 57.9 10.263 57.652L11.583 52.432H12.711ZM19.2409 57.772C19.2409 58.308 19.1689 58.784 19.0249 59.2C18.8889 59.608 18.6889 59.956 18.4249 60.244C18.1689 60.532 17.8529 60.752 17.4769 60.904C17.1089 61.048 16.6969 61.12 16.2409 61.12C15.8169 61.12 15.4249 61.048 15.0649 60.904C14.7049 60.752 14.3929 60.532 14.1289 60.244C13.8649 59.956 13.6569 59.608 13.5049 59.2C13.3609 58.784 13.2889 58.308 13.2889 57.772C13.2889 57.06 13.4089 56.46 13.6489 55.972C13.8889 55.476 14.2329 55.1 14.6809 54.844C15.1289 54.58 15.6609 54.448 16.2769 54.448C16.8609 54.448 17.3729 54.58 17.8129 54.844C18.2609 55.1 18.6089 55.476 18.8569 55.972C19.1129 56.46 19.2409 57.06 19.2409 57.772ZM14.3809 57.772C14.3809 58.276 14.4449 58.716 14.5729 59.092C14.7089 59.46 14.9169 59.744 15.1969 59.944C15.4769 60.144 15.8329 60.244 16.2649 60.244C16.6969 60.244 17.0529 60.144 17.3329 59.944C17.6129 59.744 17.8169 59.46 17.9449 59.092C18.0809 58.716 18.1489 58.276 18.1489 57.772C18.1489 57.26 18.0809 56.824 17.9449 56.464C17.8089 56.104 17.6009 55.828 17.3209 55.636C17.0489 55.436 16.6929 55.336 16.2529 55.336C15.5969 55.336 15.1209 55.552 14.8249 55.984C14.5289 56.416 14.3809 57.012 14.3809 57.772ZM23.9145 54.448C24.0345 54.448 24.1625 54.456 24.2985 54.472C24.4425 54.48 24.5665 54.496 24.6705 54.52L24.5385 55.492C24.4345 55.468 24.3185 55.448 24.1905 55.432C24.0705 55.416 23.9545 55.408 23.8425 55.408C23.5945 55.408 23.3585 55.46 23.1345 55.564C22.9105 55.668 22.7105 55.816 22.5345 56.008C22.3585 56.192 22.2185 56.416 22.1145 56.68C22.0185 56.944 21.9705 57.24 21.9705 57.568V61H20.9145V54.568H21.7785L21.8985 55.744H21.9465C22.0825 55.504 22.2465 55.288 22.4385 55.096C22.6305 54.896 22.8505 54.74 23.0985 54.628C23.3465 54.508 23.6185 54.448 23.9145 54.448ZM26.9276 61H25.8716V51.88H26.9276V61ZM31.2453 61.12C30.4453 61.12 29.8053 60.844 29.3253 60.292C28.8453 59.732 28.6053 58.9 28.6053 57.796C28.6053 56.692 28.8453 55.86 29.3253 55.3C29.8133 54.732 30.4573 54.448 31.2573 54.448C31.5933 54.448 31.8853 54.492 32.1333 54.58C32.3813 54.66 32.5973 54.772 32.7813 54.916C32.9653 55.06 33.1213 55.22 33.2493 55.396H33.3213C33.3133 55.292 33.2973 55.14 33.2733 54.94C33.2573 54.732 33.2493 54.568 33.2493 54.448V51.88H34.3053V61H33.4533L33.2973 60.136H33.2493C33.1213 60.32 32.9653 60.488 32.7813 60.64C32.5973 60.784 32.3773 60.9 32.1213 60.988C31.8733 61.076 31.5813 61.12 31.2453 61.12ZM31.4133 60.244C32.0933 60.244 32.5693 60.06 32.8413 59.692C33.1213 59.316 33.2613 58.752 33.2613 58V57.808C33.2613 57.008 33.1293 56.396 32.8653 55.972C32.6013 55.54 32.1133 55.324 31.4013 55.324C30.8333 55.324 30.4053 55.552 30.1173 56.008C29.8373 56.456 29.6973 57.06 29.6973 57.82C29.6973 58.588 29.8373 59.184 30.1173 59.608C30.4053 60.032 30.8373 60.244 31.4133 60.244ZM43.2992 61.12C42.7312 61.12 42.2232 61.004 41.7752 60.772C41.3352 60.54 40.9872 60.18 40.7312 59.692C40.4832 59.204 40.3592 58.58 40.3592 57.82C40.3592 57.028 40.4912 56.384 40.7552 55.888C41.0192 55.392 41.3752 55.028 41.8232 54.796C42.2792 54.564 42.7952 54.448 43.3712 54.448C43.6992 54.448 44.0152 54.484 44.3192 54.556C44.6232 54.62 44.8712 54.7 45.0632 54.796L44.7392 55.672C44.5472 55.6 44.3232 55.532 44.0672 55.468C43.8112 55.404 43.5712 55.372 43.3472 55.372C42.9152 55.372 42.5592 55.464 42.2792 55.648C41.9992 55.832 41.7912 56.104 41.6552 56.464C41.5192 56.824 41.4512 57.272 41.4512 57.808C41.4512 58.32 41.5192 58.756 41.6552 59.116C41.7912 59.476 41.9952 59.748 42.2672 59.932C42.5392 60.116 42.8792 60.208 43.2872 60.208C43.6392 60.208 43.9472 60.172 44.2112 60.1C44.4832 60.028 44.7312 59.94 44.9552 59.836V60.772C44.7392 60.884 44.4992 60.968 44.2352 61.024C43.9792 61.088 43.6672 61.12 43.2992 61.12ZM47.5408 61H46.4848V51.88H47.5408V61ZM55.1706 57.772C55.1706 58.308 55.0986 58.784 54.9546 59.2C54.8186 59.608 54.6186 59.956 54.3546 60.244C54.0986 60.532 53.7826 60.752 53.4066 60.904C53.0386 61.048 52.6266 61.12 52.1706 61.12C51.7466 61.12 51.3546 61.048 50.9946 60.904C50.6346 60.752 50.3226 60.532 50.0586 60.244C49.7946 59.956 49.5866 59.608 49.4346 59.2C49.2906 58.784 49.2186 58.308 49.2186 57.772C49.2186 57.06 49.3386 56.46 49.5786 55.972C49.8186 55.476 50.1626 55.1 50.6106 54.844C51.0586 54.58 51.5906 54.448 52.2066 54.448C52.7906 54.448 53.3026 54.58 53.7426 54.844C54.1906 55.1 54.5386 55.476 54.7866 55.972C55.0426 56.46 55.1706 57.06 55.1706 57.772ZM50.3106 57.772C50.3106 58.276 50.3746 58.716 50.5026 59.092C50.6386 59.46 50.8466 59.744 51.1266 59.944C51.4066 60.144 51.7626 60.244 52.1946 60.244C52.6266 60.244 52.9826 60.144 53.2626 59.944C53.5426 59.744 53.7466 59.46 53.8746 59.092C54.0106 58.716 54.0786 58.276 54.0786 57.772C54.0786 57.26 54.0106 56.824 53.8746 56.464C53.7386 56.104 53.5306 55.828 53.2506 55.636C52.9786 55.436 52.6226 55.336 52.1826 55.336C51.5266 55.336 51.0506 55.552 50.7546 55.984C50.4586 56.416 50.3106 57.012 50.3106 57.772ZM59.4242 61.12C58.8562 61.12 58.3482 61.004 57.9002 60.772C57.4602 60.54 57.1122 60.18 56.8562 59.692C56.6082 59.204 56.4842 58.58 56.4842 57.82C56.4842 57.028 56.6162 56.384 56.8802 55.888C57.1442 55.392 57.5002 55.028 57.9482 54.796C58.4042 54.564 58.9202 54.448 59.4962 54.448C59.8242 54.448 60.1402 54.484 60.4442 54.556C60.7482 54.62 60.9962 54.7 61.1882 54.796L60.8642 55.672C60.6722 55.6 60.4482 55.532 60.1922 55.468C59.9362 55.404 59.6962 55.372 59.4722 55.372C59.0402 55.372 58.6842 55.464 58.4042 55.648C58.1242 55.832 57.9162 56.104 57.7802 56.464C57.6442 56.824 57.5762 57.272 57.5762 57.808C57.5762 58.32 57.6442 58.756 57.7802 59.116C57.9162 59.476 58.1202 59.748 58.3922 59.932C58.6642 60.116 59.0042 60.208 59.4122 60.208C59.7642 60.208 60.0722 60.172 60.3362 60.1C60.6082 60.028 60.8562 59.94 61.0802 59.836V60.772C60.8642 60.884 60.6242 60.968 60.3602 61.024C60.1042 61.088 59.7922 61.12 59.4242 61.12ZM63.6538 56.644C63.6538 56.772 63.6458 56.94 63.6298 57.148C63.6218 57.356 63.6138 57.536 63.6058 57.688H63.6538C63.7018 57.624 63.7738 57.532 63.8698 57.412C63.9658 57.292 64.0618 57.172 64.1578 57.052C64.2618 56.924 64.3498 56.82 64.4218 56.74L66.4738 54.568H67.7098L65.1058 57.316L67.8898 61H66.6178L64.3858 58L63.6538 58.636V61H62.6098V51.88H63.6538V56.644Z" fill="black"/>
<g filter="url(#filter0_di_19_104)">
<circle cx="34.4958" cy="19.4994" r="19.4994" fill="#040412"/>
</g>
<g filter="url(#filter1_b_19_104)">
<path d="M18.018 27.6117C22.7228 30.5617 39.0707 34.306 51.33 27.2262M16.4686 19.9932H52.8794M17.2433 14.4943C21.4104 10.5611 38.555 5.93948 52.1047 14.4943" stroke="#C5BADD" stroke-width="1.5" stroke-linecap="round" stroke-linejoin="round"/>
</g>
<g filter="url(#filter2_b_19_104)">
<path d="M28.5455 2.47035C24.9986 7.17513 19.1952 24.6851 27.7077 36.9444M34.7132 1.69565V38.1065M40.2773 2.47035C45.0065 6.63744 52.2392 23.0073 41.9533 36.5571" stroke="#C5BADD" stroke-width="1.5" stroke-linecap="round" stroke-linejoin="round"/>
</g>
<defs>
<filter id="filter0_di_19_104" x="10.9963" y="0" width="46.9988" height="46.9988" filterUnits="userSpaceOnUse" color-interpolation-filters="sRGB">
<feFlood flood-opacity="0" result="BackgroundImageFix"/>
<feColorMatrix in="SourceAlpha" type="matrix" values="0 0 0 0 0 0 0 0 0 0 0 0 0 0 0 0 0 0 127 0" result="hardAlpha"/>
<feOffset dy="4"/>
<feGaussianBlur stdDeviation="2"/>
<feComposite in2="hardAlpha" operator="out"/>
<feColorMatrix type="matrix" values="0 0 0 0 0 0 0 0 0 0 0 0 0 0 0 0 0 0 0.25 0"/>
<feBlend mode="normal" in2="BackgroundImageFix" result="effect1_dropShadow_19_104"/>
<feBlend mode="normal" in="SourceGraphic" in2="effect1_dropShadow_19_104" result="shape"/>
<feColorMatrix in="SourceAlpha" type="matrix" values="0 0 0 0 0 0 0 0 0 0 0 0 0 0 0 0 0 0 127 0" result="hardAlpha"/>
<feOffset dy="1"/>
<feGaussianBlur stdDeviation="2"/>
<feComposite in2="hardAlpha" operator="arithmetic" k2="-1" k3="1"/>
<feColorMatrix type="matrix" values="0 0 0 0 1 0 0 0 0 1 0 0 0 0 1 0 0 0 0.25 0"/>
<feBlend mode="normal" in2="shape" result="effect2_innerShadow_19_104"/>
</filter>
<filter id="filter1_b_19_104" x="-4.28137" y="-11.0894" width="77.9108" height="63.119" filterUnits="userSpaceOnUse" color-interpolation-filters="sRGB">
<feFlood flood-opacity="0" result="BackgroundImageFix"/>
<feGaussianBlur in="BackgroundImageFix" stdDeviation="10"/>
<feComposite in2="SourceAlpha" operator="in" result="effect1_backgroundBlur_19_104"/>
<feBlend mode="normal" in="SourceGraphic" in2="effect1_backgroundBlur_19_104" result="shape"/>
</filter>
<filter id="filter2_b_19_104" x="2.54578" y="-19.0544" width="65.3943" height="77.9108" filterUnits="userSpaceOnUse" color-interpolation-filters="sRGB">
<feFlood flood-opacity="0" result="BackgroundImageFix"/>
<feGaussianBlur in="BackgroundImageFix" stdDeviation="10"/>
<feComposite in2="SourceAlpha" operator="in" result="effect1_backgroundBlur_19_104"/>
<feBlend mode="normal" in="SourceGraphic" in2="effect1_backgroundBlur_19_104" result="shape"/>
</filter>
</defs>
</svg>
